<svg width="1725" height="399" viewBox="0 0 1725 399" fill="none" xmlns="http://www.w3.org/2000/svg">
<rect width="1725" height="399" rx="60" fill="#D9D9D9"/>
<path d="M703.84 227.64C698.027 227.64 693.173 226.413 689.28 223.96C685.44 221.453 682.56 218.04 680.64 213.72C678.773 209.347 677.84 204.36 677.84 198.76C677.84 193.213 678.8 188.28 680.72 183.96C682.64 179.587 685.52 176.147 689.36 173.64C693.253 171.08 698.133 169.8 704 169.8C708.16 169.8 711.733 170.467 714.72 171.8C717.76 173.08 720.213 174.867 722.08 177.16C723.947 179.453 725.227 182.147 725.92 185.24H718.88C718.08 182.467 716.347 180.253 713.68 178.6C711.067 176.947 707.76 176.12 703.76 176.12C699.28 176.12 695.653 177.187 692.88 179.32C690.16 181.4 688.16 184.147 686.88 187.56C685.6 190.92 684.96 194.573 684.96 198.52C684.96 202.68 685.627 206.493 686.96 209.96C688.293 213.427 690.373 216.2 693.2 218.28C696.027 220.307 699.627 221.32 704 221.32C706.667 221.32 709.04 220.947 711.12 220.2C713.253 219.453 715.013 218.387 716.4 217C717.84 215.613 718.827 214.013 719.36 212.2H726.96C726.16 215.293 724.72 218.013 722.64 220.36C720.613 222.653 718.027 224.44 714.88 225.72C711.733 227 708.053 227.64 703.84 227.64ZM761.199 227.64C755.332 227.64 750.425 226.387 746.479 223.88C742.532 221.373 739.545 217.933 737.519 213.56C735.545 209.187 734.559 204.253 734.559 198.76C734.559 193.213 735.545 188.253 737.519 183.88C739.545 179.507 742.532 176.067 746.479 173.56C750.425 171.053 755.332 169.8 761.199 169.8C767.065 169.8 771.945 171.053 775.839 173.56C779.785 176.067 782.745 179.507 784.719 183.88C786.745 188.253 787.759 193.213 787.759 198.76C787.759 204.253 786.745 209.187 784.719 213.56C782.745 217.933 779.785 221.373 775.839 223.88C771.945 226.387 767.065 227.64 761.199 227.64ZM761.199 221.32C765.679 221.32 769.359 220.307 772.239 218.28C775.119 216.2 777.225 213.453 778.559 210.04C779.945 206.627 780.639 202.867 780.639 198.76C780.639 195.667 780.239 192.76 779.439 190.04C778.692 187.267 777.519 184.84 775.919 182.76C774.319 180.68 772.292 179.053 769.839 177.88C767.385 176.707 764.505 176.12 761.199 176.12C756.772 176.12 753.092 177.16 750.159 179.24C747.279 181.32 745.119 184.067 743.679 187.48C742.292 190.893 741.599 194.653 741.599 198.76C741.599 202.813 742.292 206.547 743.679 209.96C745.065 213.373 747.199 216.12 750.079 218.2C753.012 220.28 756.719 221.32 761.199 221.32ZM798.538 227V170.44H807.418L836.938 217.56V170.44H843.898V227H835.178L805.498 180.04V227H798.538ZM870.155 227V176.76H851.995V170.44H895.275V176.76H877.115V227H870.155ZM903.382 227V170.44H941.382V176.76H910.342V195.8H938.262V202.2H910.342V220.68H941.382V227H903.382ZM952.21 227V170.44H961.09L990.61 217.56V170.44H997.57V227H988.85L959.17 180.04V227H952.21ZM1023.83 227V176.76H1005.67V170.44H1048.95V176.76H1030.79V227H1023.83Z" fill="black"/>
</svg>
